<?xml version="1.0" encoding="UTF-8"?>
<svg width="224px" height="80px" viewBox="0 0 224 80" version="1.1" xmlns="http://www.w3.org/2000/svg" xmlns:xlink="http://www.w3.org/1999/xlink">
    <!-- Generator: Sketch 52.4 (67378) - http://www.bohemiancoding.com/sketch -->
    <title>GobiernoPueblos</title>
    <desc>Created with Sketch.</desc>
    <defs>
        <polygon id="path-1" points="0.227035897 0.0507487179 9.10605128 0.0507487179 9.10605128 11.0045949 0.227035897 11.0045949"></polygon>
    </defs>
    <g id="Page-1" stroke="none" stroke-width="1" fill="none" fill-rule="evenodd">
        <g id="GobiernoPueblos">
            <g id="Group-111">
                <path d="M127.008656,24.6087795 L123.102195,24.6087795 C122.931938,24.6087795 122.787118,24.6736 122.680862,24.7954462 C122.586092,24.9053949 122.535631,25.0362667 122.535631,25.1753436 L122.535631,26.2297026 C122.535631,26.3753436 122.586092,26.5111385 122.680862,26.6202667 C122.787118,26.7425231 122.931938,26.8069333 123.102195,26.8069333 L124.932759,26.8069333 L124.932759,30.019241 C124.681682,30.0943179 124.402708,30.1492923 124.10199,30.1817026 C122.85399,30.3179077 121.781579,30.2350359 121.002503,29.8551385 C120.472862,29.5970872 120.034297,29.2327795 119.699118,28.7720615 C119.358195,28.3035487 119.105477,27.7361641 118.949169,27.0859077 C118.788759,26.4212923 118.707528,25.6770872 118.707528,24.8754462 C118.707528,24.1250872 118.812964,23.4042667 119.021785,22.7334974 C119.226913,22.0709333 119.532554,21.4822154 119.929682,20.9845744 C120.322297,20.4914462 120.812554,20.0971897 121.388144,19.8116513 C121.960862,19.5265231 122.63081,19.3825231 123.379118,19.3825231 C123.568246,19.3825231 123.736451,19.3890872 123.883733,19.4034462 C124.030195,19.4169846 124.169682,19.4366769 124.301785,19.4604718 C124.434708,19.4850872 124.565169,19.5146256 124.69399,19.5499077 L125.005374,19.631959 C125.064451,19.7936 125.118195,19.955241 125.167836,20.1185231 C125.234297,20.3371897 125.304862,20.5529846 125.377887,20.7675487 C125.404964,20.8680615 125.448862,20.9521641 125.508349,21.0186256 C125.569067,21.0875487 125.683118,21.1691897 125.876349,21.1691897 L126.687015,21.1691897 C126.992656,21.1691897 127.197785,20.9640615 127.197785,20.6686769 L127.275323,18.4163692 C127.275323,18.2908308 127.226503,18.1706256 127.130503,18.0590359 C127.050913,17.9671385 126.94999,17.8969846 126.8384,17.8518564 C126.729272,17.8059077 126.569682,17.7456 126.35799,17.6721641 C126.147528,17.599959 125.892349,17.5261128 125.598605,17.4534974 C125.305682,17.3812923 124.969272,17.3181128 124.59799,17.2643692 C124.220554,17.2114462 123.810297,17.183959 123.379118,17.183959 C122.225887,17.183959 121.178092,17.3829333 120.264862,17.7743179 C119.349579,18.1669333 118.562297,18.7174974 117.925579,19.4120615 C117.290913,20.1041641 116.797785,20.9341128 116.460554,21.8777026 C116.124964,22.8147282 115.954708,23.8461128 115.954708,24.9419077 C115.954708,26.0684718 116.093374,27.1035487 116.366605,28.019241 C116.643938,28.9488821 117.080041,29.7521641 117.661374,30.4077538 C118.244349,31.0645744 118.987323,31.5786256 119.871426,31.9351385 C120.746092,32.2883692 121.792246,32.467241 122.979938,32.467241 C123.532964,32.467241 124.042913,32.4323692 124.495426,32.3638564 C124.943426,32.2961641 125.336041,32.2194462 125.662605,32.1365744 C125.992862,32.0516513 126.267733,31.9654974 126.478605,31.8793436 C126.69481,31.7915487 126.8384,31.7263179 126.907323,31.6881641 C127.020554,31.6266256 127.135836,31.5474462 127.247015,31.4534974 C127.413169,31.3123692 127.497272,31.1010872 127.497272,30.8245744 L127.497272,25.075241 C127.497272,24.7958564 127.301169,24.6087795 127.008656,24.6087795" id="Fill-1" fill="#5B666F"></path>
                <path d="M136.275487,26.7125744 C136.275487,27.4108308 136.208615,28.0044718 136.076103,28.4758564 C135.946872,28.9320615 135.76841,29.3000615 135.545641,29.5683692 C135.327795,29.8305231 135.071385,30.0208821 134.783385,30.1349333 C134.179487,30.3745231 133.400821,30.3691897 132.794051,30.1345231 C132.495795,30.0188308 132.242256,29.8305231 132.018256,29.5585231 C131.790154,29.2811897 131.60759,28.9090872 131.475487,28.4516513 C131.339692,27.9831385 131.270769,27.3903179 131.270769,26.6900103 C131.270769,26.0299077 131.327385,25.4588308 131.440205,24.9931897 C131.548513,24.5435487 131.706462,24.1747282 131.91159,23.8986256 C132.110564,23.6294974 132.350564,23.4391385 132.645949,23.3156513 C132.95159,23.1876513 133.314256,23.1224205 133.723282,23.1224205 C134.125333,23.1224205 134.48759,23.1888821 134.800205,23.3209846 C135.101333,23.4473436 135.361436,23.6491897 135.572718,23.9207795 C135.790974,24.2018051 135.963282,24.5726769 136.085949,25.0235487 C136.211897,25.4867282 136.275487,26.0553436 136.275487,26.7125744 M137.423385,22.2965744 C136.945026,21.8313436 136.380513,21.4846769 135.745846,21.2680615 C134.477333,20.8348308 132.960615,20.8483692 131.738872,21.2680615 C131.105846,21.4850872 130.550359,21.8305231 130.087179,22.2937026 C129.624821,22.7560615 129.259692,23.3550359 129.001641,24.0750359 C128.746462,24.7851897 128.617641,25.647959 128.617641,26.6403692 C128.617641,27.6857026 128.758769,28.5874462 129.036513,29.3213949 C129.317128,30.0623179 129.699487,30.6731897 130.172103,31.1384205 C130.646359,31.6052923 131.206769,31.9482667 131.836513,32.1579077 C132.452308,32.3630359 133.105436,32.467241 133.779077,32.467241 C134.458462,32.467241 135.116923,32.3650872 135.73641,32.1640615 C136.369436,31.9581128 136.932718,31.6176 137.412308,31.1503179 C137.889436,30.6850872 138.271385,30.0750359 138.549128,29.3369846 C138.822769,28.6075487 138.961846,27.7078564 138.961846,26.6625231 C138.961846,25.6684718 138.824821,24.8020103 138.554051,24.0869333 C138.280821,23.3652923 137.900513,22.7626256 137.423385,22.2965744" id="Fill-3" fill="#5B666F"></path>
                <path d="M147.847179,26.4850051 C147.847179,27.1545436 147.771282,27.739159 147.622359,28.2220308 C147.476718,28.6942359 147.269949,29.0848 147.008205,29.3830564 C146.749744,29.678441 146.436718,29.8987487 146.077744,30.0398769 C145.708923,30.1842872 145.291692,30.2577231 144.835897,30.2577231 C144.389538,30.2577231 143.994051,30.2236718 143.658051,30.1576205 C143.437744,30.1149538 143.254359,30.0755692 143.109128,30.0398769 L143.109128,24.2072615 C143.44759,23.8995692 143.808615,23.6333128 144.184,23.4150564 C144.568,23.1914667 144.973333,23.0778256 145.389333,23.0778256 C145.868923,23.0778256 146.266872,23.1734154 146.572103,23.3613128 C146.883487,23.5533128 147.134974,23.8068513 147.319179,24.1141333 C147.510769,24.4337231 147.646974,24.8004923 147.725333,25.2041846 C147.805744,25.6238769 147.847179,26.0550564 147.847179,26.4850051 M149.565333,22.7028513 C149.222359,22.1752615 148.757128,21.7481846 148.18359,21.4331077 C147.609641,21.1176205 146.882256,20.9576205 146.022769,20.9576205 C145.430769,20.9576205 144.838769,21.0790564 144.261949,21.3190564 C143.870564,21.4815179 143.484513,21.6940308 143.109128,21.9545436 L143.109128,21.8679795 L143.109128,16.4743385 C143.109128,16.2618256 143.021744,16.1297231 142.947897,16.0558769 C142.843692,15.9524923 142.708308,15.8975179 142.533128,15.8975179 L142.528205,15.8975179 L139.635077,16.1317744 C139.509538,16.1457231 139.399179,16.1908513 139.308923,16.2659282 C139.229333,16.3323897 139.134974,16.4550564 139.134974,16.6630564 L139.134974,17.3732103 C139.134974,17.5594667 139.217436,17.6714667 139.285538,17.7305436 C139.354872,17.7924923 139.443897,17.8368 139.549333,17.8634667 L140.510974,18.1153641 L140.510974,31.5955692 L140.716513,31.6640821 C140.874051,31.7170051 141.109538,31.7883897 141.421744,31.8786462 C141.732308,31.9684923 142.089641,32.0575179 142.484308,32.1440821 C142.878154,32.2306462 143.30359,32.3061333 143.748718,32.3701333 C144.20041,32.4345436 144.650051,32.4673641 145.084513,32.4673641 C145.866051,32.4673641 146.594256,32.3352615 147.248205,32.0743385 C147.908308,31.8109538 148.485949,31.4183385 148.965949,30.9075692 C149.443077,30.3988513 149.817231,29.7674667 150.078154,29.0326974 C150.336205,28.3032615 150.467487,27.4610051 150.467487,26.5293128 C150.467487,25.8249026 150.402256,25.1385436 150.273026,24.4895179 C150.140513,23.822441 149.902564,23.2214154 149.565333,22.7028513" id="Fill-5" fill="#5B666F"></path>
                <path d="M154.10679,20.1147897 C154.549456,20.1147897 154.913354,19.9773538 155.188636,19.7069949 C155.465559,19.4345846 155.605456,19.0825846 155.605456,18.660841 C155.605456,18.2317128 155.465559,17.8756103 155.188636,17.6027897 C154.912533,17.3324308 154.548636,17.1949949 154.10679,17.1949949 C153.664123,17.1949949 153.301046,17.332841 153.028636,17.6052513 C152.757046,17.876841 152.6192,18.2325333 152.6192,18.660841 C152.6192,19.0817641 152.757046,19.4333538 153.028636,19.7049436 C153.300636,19.9769436 153.663713,20.1147897 154.10679,20.1147897" id="Fill-7" fill="#5B666F"></path>
                <path d="M156.196144,30.4096821 L155.143426,30.1733744 L155.143426,21.624041 C155.143426,21.4152205 155.059323,21.2827077 154.99081,21.2084513 C154.886195,21.0964513 154.747938,21.0361436 154.565785,21.0361436 L154.561682,21.0361436 L151.635733,21.2810667 C151.509785,21.2950154 151.400656,21.3405538 151.3104,21.4152205 C151.2304,21.4816821 151.136041,21.6043487 151.136041,21.8123487 L151.136041,22.5225026 C151.136041,22.7772718 151.298503,22.9651692 151.561067,23.016041 L152.545682,23.2576821 L152.545682,31.8123487 C152.545682,32.0215795 152.637169,32.1499897 152.715528,32.2221949 C152.818503,32.3165538 152.950605,32.3666051 153.120862,32.3666051 L153.124964,32.3666051 C153.615221,32.3296821 154.1104,32.2948103 154.610503,32.2615795 C155.112246,32.2283487 155.608656,32.1926564 156.102195,32.1553231 C156.421374,32.1266051 156.619118,31.9227077 156.619118,31.6236308 L156.619118,30.9019897 C156.619118,30.6566564 156.46199,30.472041 156.196144,30.4096821" id="Fill-9" fill="#5B666F"></path>
                <path d="M159.630031,25.1969231 C159.681313,24.9581538 159.751467,24.7316923 159.840492,24.521641 C159.966031,24.2213333 160.130544,23.96 160.328287,23.7446154 C160.521518,23.5345641 160.755364,23.3671795 161.023262,23.2469744 C161.290338,23.1271795 161.598441,23.0668718 161.938133,23.0668718 C162.561313,23.0668718 163.0048,23.2568205 163.295672,23.6482051 C163.5648,24.0104615 163.737108,24.5302564 163.809723,25.1969231 L159.630031,25.1969231 Z M165.311262,22.3386667 C164.936287,21.8549744 164.453415,21.4906667 163.877005,21.2568205 C163.314133,21.0287179 162.647056,20.9134359 161.893826,20.9134359 C161.105723,20.9134359 160.392287,21.0611282 159.774031,21.3524103 C159.155364,21.6436923 158.626954,22.0539487 158.203979,22.5716923 C157.785928,23.0845128 157.463056,23.7007179 157.245621,24.4038974 C157.030646,25.1001026 156.921518,25.8631795 156.921518,26.6738462 C156.921518,27.5780513 157.046646,28.3952821 157.293621,29.1029744 C157.543056,29.8205128 157.908595,30.4371282 158.379569,30.9364103 C158.852185,31.4373333 159.439262,31.8221538 160.123159,32.0814359 C160.797621,32.3374359 161.569313,32.4674872 162.415672,32.4674872 C162.98839,32.4674872 163.573415,32.4075897 164.15639,32.2890256 C164.740185,32.1712821 165.306749,31.9952821 165.834338,31.7692308 C165.903672,31.7413333 165.968492,31.7007179 166.027569,31.6482051 C166.096492,31.5870769 166.178544,31.4754872 166.178544,31.2908718 L166.085415,30.7243077 C166.056287,30.5548718 166.031672,30.3829744 166.008287,30.2012308 C165.991467,30.0937436 165.956185,29.9382564 165.83721,29.8328205 C165.749005,29.7548718 165.636185,29.7142564 165.512287,29.7142564 C165.447877,29.7142564 165.374031,29.7290256 165.263262,29.766359 C164.820185,29.9308718 164.39639,30.0551795 164.002544,30.1364103 C163.112287,30.3218462 162.130954,30.2914872 161.424082,30.0662564 C161.03721,29.944 160.704492,29.7524103 160.436185,29.4964103 C160.166646,29.2408205 159.952492,28.9081026 159.799467,28.5081026 C159.670646,28.1729231 159.584082,27.7770256 159.541415,27.3286154 L165.845005,27.3286154 C166.12439,27.3286154 166.254031,27.1698462 166.306544,27.0742564 C166.368903,26.9630769 166.400492,26.8322051 166.400492,26.6845128 C166.400492,25.7105641 166.311467,24.8572308 166.136287,24.1487179 C165.957005,23.4229744 165.678851,22.8137436 165.311262,22.3386667 Z" id="Fill-11" fill="#5B666F"></path>
                <path d="M174.423713,21.1500718 C174.379405,21.1275077 174.334277,21.1078154 174.289969,21.0901744 L174.244021,21.0754051 C174.173046,21.0598154 174.092226,21.0438154 174.002379,21.0286359 C173.912533,21.0130462 173.821046,20.9995077 173.727918,20.9876103 C173.630277,20.9757128 173.535508,20.9675077 173.442379,20.9638154 C173.352533,20.9593026 173.275815,20.9576615 173.213046,20.9576615 C172.581251,20.9576615 172.013867,21.1377641 171.526892,21.4922256 C171.270072,21.6788923 171.041149,21.8987897 170.840123,22.1502769 L170.758482,21.5993026 C170.710892,21.2013538 170.449149,21.0581744 170.1952,21.0581744 L170.192738,21.0581744 L167.542072,21.2702769 C167.416123,21.2838154 167.306174,21.3293538 167.216328,21.4040205 C167.136328,21.4708923 167.041969,21.5931487 167.041969,21.801559 L167.041969,22.5338667 C167.041969,22.6282256 167.070687,22.7213538 167.130174,22.8173538 C167.181046,22.9010462 167.280738,23.0085333 167.462482,23.0479179 L168.462687,23.2821744 L168.462687,31.6567385 C168.462687,31.7892513 168.502892,31.9115077 168.580431,32.0120205 C168.634585,32.0825846 168.760533,32.2011487 168.99561,32.2011487 L170.538174,32.2011487 C170.709251,32.2011487 170.855713,32.1289436 170.948841,31.9972513 C171.021867,31.8955077 171.060431,31.7777641 171.060431,31.6567385 L171.060431,25.1205333 C171.126892,24.9092513 171.213046,24.7016615 171.31561,24.5030974 C171.420636,24.2992 171.549867,24.1149949 171.700021,23.9545846 C171.845662,23.8003282 172.014687,23.6739692 172.203815,23.5796103 C172.445456,23.4585846 172.732636,23.4142769 173.10679,23.4643282 C173.209764,23.4778667 173.309046,23.4950974 173.405456,23.5160205 C173.514585,23.5389949 173.617559,23.5582769 173.714379,23.5738667 C173.82679,23.5919179 173.918277,23.6001231 173.989662,23.6001231 C174.152944,23.6001231 174.360944,23.4996103 174.408944,23.209559 L174.644841,21.5463795 C174.644841,21.2887385 174.490174,21.1833026 174.423713,21.1500718" id="Fill-13" fill="#5B666F"></path>
                <path d="M186.964185,30.4886154 L186.040287,30.2568205 L186.040287,24.2211282 C186.040287,23.1971282 185.755569,22.3868718 185.193108,21.8133333 C184.629005,21.2381538 183.832697,20.9464615 182.827569,20.9464615 C182.096492,20.9464615 181.399877,21.1019487 180.757826,21.4084103 C180.275364,21.6393846 179.787159,21.9433846 179.301005,22.3154872 L179.21239,21.5991795 C179.1648,21.2008205 178.897313,21.0584615 178.639262,21.0584615 L178.6368,21.0584615 L175.995979,21.2590769 C175.870031,21.2730256 175.760492,21.3181538 175.670646,21.3932308 C175.590646,21.4596923 175.496287,21.582359 175.496287,21.790359 L175.496287,22.5115897 C175.496287,22.5997949 175.520492,22.688 175.570133,22.7803077 C175.636185,22.9042051 175.752697,22.9891282 175.923774,23.0358974 L176.8608,23.2681026 L176.8608,31.6570256 C176.8608,31.7899487 176.902236,31.9130256 176.977723,32.0106667 C177.031877,32.081641 177.158236,32.2010256 177.394544,32.2010256 L178.925621,32.2010256 C179.104492,32.2010256 179.253826,32.1288205 179.347774,31.9975385 C179.42039,31.8957949 179.458954,31.7780513 179.458954,31.6570256 L179.458954,24.4406154 C179.611979,24.2822564 179.778954,24.1312821 179.957005,23.9893333 C180.165005,23.8231795 180.386544,23.6763077 180.615877,23.5532308 C180.84439,23.4301538 181.081518,23.3321026 181.320697,23.2598974 C181.550031,23.1909744 181.786338,23.1556923 182.022236,23.1556923 C182.501005,23.1556923 182.848082,23.28 183.083159,23.5364103 C183.321518,23.7956923 183.442544,24.224 183.442544,24.8090256 L183.442544,31.7677949 C183.442544,31.8777436 183.483159,31.9881026 183.562338,32.0951795 C183.658749,32.2268718 183.8048,32.2998974 183.99639,32.2998974 L183.999262,32.2998974 C184.4768,32.2633846 184.958031,32.2375385 185.430236,32.2231795 C185.911877,32.2084103 186.39721,32.1821538 186.880082,32.144 C187.178338,32.1140513 187.371979,31.9097436 187.371979,31.6237949 L187.371979,30.9911795 C187.371979,30.8890256 187.343262,30.7917949 187.286236,30.702359 C187.238236,30.6272821 187.143877,30.529641 186.964185,30.4886154" id="Fill-15" fill="#5B666F"></path>
                <path d="M195.09961,26.4561641 C195.09961,27.1544205 195.032738,27.7480615 194.899815,28.2194462 C194.770585,28.6756513 194.592533,29.043241 194.369764,29.311959 C194.151508,29.5741128 193.895508,29.7644718 193.607508,29.8785231 C193.00361,30.1177026 192.224533,30.1127795 191.617764,29.8777026 C191.319918,29.7624205 191.065969,29.5741128 190.842379,29.3021128 C190.614277,29.0247795 190.431713,28.6526769 190.29961,28.195241 C190.163815,27.7267282 190.094892,27.1334974 190.094892,26.4336 C190.094892,25.7734974 190.151508,25.2024205 190.263918,24.7367795 C190.372226,24.2871385 190.530585,23.9183179 190.735303,23.6422154 C190.934277,23.3730872 191.174277,23.1827282 191.470072,23.059241 C191.775713,22.9308308 192.137969,22.8660103 192.547405,22.8660103 C192.949456,22.8660103 193.311303,22.9324718 193.623918,23.0645744 C193.925456,23.1909333 194.185149,23.3927795 194.396841,23.6643692 C194.615097,23.9453949 194.787405,24.3162667 194.910072,24.7671385 C195.036021,25.2303179 195.09961,25.7989333 195.09961,26.4561641 M197.378174,23.8305231 C197.104944,23.1088821 196.724226,22.5062154 196.247097,22.0401641 C195.769149,21.5745231 195.204636,21.2282667 194.569559,21.0116513 C193.301456,20.5784205 191.784738,20.591959 190.562995,21.0116513 C189.929969,21.2286769 189.374482,21.5741128 188.910892,22.0372923 C188.448533,22.4996513 188.083815,23.0986256 187.825764,23.8186256 C187.570585,24.5287795 187.441764,25.3915487 187.441764,26.383959 C187.441764,27.4292923 187.582892,28.3310359 187.860226,29.0649846 C188.141251,29.8054974 188.5232,30.4167795 188.996226,30.8820103 C189.470482,31.3484718 190.030482,31.6918564 190.660226,31.9014974 C191.276021,32.1066256 191.929559,32.2108308 192.60279,32.2108308 C193.282585,32.2108308 193.941046,32.1086769 194.560123,31.9076513 C195.193149,31.7017026 195.756841,31.3611897 196.236431,30.8939077 C196.713149,30.4286769 197.095508,29.8186256 197.372841,29.0805744 C197.646482,28.3511385 197.785969,27.4514462 197.785969,26.4061128 C197.785969,25.4120615 197.648533,24.5456 197.378174,23.8305231" id="Fill-17" fill="#5B666F"></path>
                <path d="M204.692144,26.8067282 C204.692144,27.2284718 204.729477,27.6653949 204.803323,28.1162667 C204.877169,28.567959 205.015836,28.9802667 205.219323,29.3540103 C205.42281,29.7273436 205.703836,30.0325744 206.06281,30.2692923 C206.421785,30.5068308 206.882503,30.6245744 207.444554,30.6245744 C207.91799,30.6245744 208.373374,30.5023179 208.809887,30.2582154 C209.24681,30.0141128 209.660759,29.7068308 210.052554,29.3371897 L210.052554,23.1443692 C209.697682,23.0409846 209.346503,22.9667282 208.998605,22.9220103 C208.650297,22.8777026 208.321272,22.8555487 208.010708,22.8555487 C207.515118,22.8555487 207.063426,22.9277538 206.656862,23.0721641 C206.249477,23.2165744 205.899938,23.4442667 205.607426,23.7548308 C205.315733,24.0653949 205.090092,24.4686769 204.930913,24.9642667 C204.771733,25.4606769 204.692144,26.0596513 204.692144,26.7624205 L204.692144,26.8067282 Z M208.865682,17.5726769 C208.805785,17.5579077 208.760246,17.5357538 208.726195,17.5062154 C208.692964,17.4770872 208.676554,17.4323692 208.676554,17.3732923 L208.676554,16.6627282 C208.676554,16.5888821 208.698708,16.5334974 208.743426,16.4965744 C208.787733,16.459241 208.843118,16.4374974 208.909579,16.4297026 L211.784246,16.1970872 C211.947118,16.1970872 212.028349,16.2893949 212.028349,16.4740103 L212.028349,30.5355487 L213.115938,30.7911385 C213.1824,30.8059077 213.23081,30.8354462 213.260349,30.8801641 C213.289477,30.9244718 213.304246,30.9650872 213.304246,31.0024205 L213.304246,31.6346256 C213.304246,31.767959 213.226708,31.8413949 213.071631,31.8565744 L210.518605,32.0120615 C210.444759,32.0120615 210.389374,31.9915487 210.352451,31.9509333 C210.315528,31.9099077 210.289682,31.8602667 210.274503,31.8011897 L210.097272,30.8247795 C209.564759,31.2608821 209.029374,31.5903179 208.493579,31.8122667 C207.956964,32.0338051 207.400656,32.1449846 206.823015,32.1449846 C206.282708,32.1449846 205.803938,32.0748308 205.385887,31.9341128 C204.967836,31.7933949 204.605579,31.5977026 204.298297,31.3458051 C203.991426,31.0947282 203.733785,30.7985231 203.526605,30.4576 C203.319426,30.1179077 203.153272,29.7458051 203.027323,29.3429333 C202.901785,28.9396513 202.811118,28.5162667 202.755323,28.071959 C202.700349,27.6280615 202.672451,27.1763692 202.672451,26.7181128 C202.672451,25.8155487 202.79799,25.0212923 203.049477,24.3373949 C203.300964,23.6530872 203.650503,23.0816 204.098913,22.6225231 C204.546503,22.1642667 205.082297,21.8180103 205.707938,21.5849846 C206.332759,21.351959 207.019528,21.2354462 207.766605,21.2354462 C208.143631,21.2354462 208.519015,21.2612923 208.893169,21.3129846 C209.266092,21.3646769 209.653374,21.435241 210.052554,21.5238564 C210.045579,21.3909333 210.041477,21.2485744 210.041477,21.0967795 L210.041477,20.6918564 L210.041477,17.8836513 L208.865682,17.5726769 Z" id="Fill-19" fill="#5B666F"></path>
                <g id="Group-23" transform="translate(214.153846, 21.162667)">
                    <mask id="mask-2" fill="white">
                        <use xlink:href="#path-1"></use>
                    </mask>
                    <g id="Clip-22"></g>
                    <path d="M4.94375385,1.60397949 C4.55934359,1.60397949 4.21308718,1.67290256 3.90662564,1.81033846 C3.59893333,1.94818462 3.33431795,2.13772308 3.11236923,2.37895385 C2.89042051,2.62059487 2.70949744,2.90859487 2.56877949,3.24254359 C2.42806154,3.57731282 2.33206154,3.9408 2.28036923,4.3342359 L7.14108718,4.3342359 C7.08939487,3.45013333 6.8896,2.77444103 6.54211282,2.30633846 C6.19421538,1.8382359 5.66129231,1.60397949 4.94375385,1.60397949 M0.227035897,5.51085128 C0.227035897,4.72685128 0.330420513,3.99987692 0.5376,3.32992821 C0.744779487,2.66038974 1.04631795,2.08356923 1.44262564,1.59864615 C1.83811282,1.11413333 2.32631795,0.73505641 2.90724103,0.461415385 C3.48775385,0.187364103 4.15154872,0.0507487179 4.89944615,0.0507487179 C5.61698462,0.0507487179 6.2401641,0.158235897 6.76939487,0.372389744 C7.29862564,0.586953846 7.73513846,0.915979487 8.07934359,1.35987692 C8.42272821,1.80377436 8.67995897,2.37033846 8.85062564,3.05833846 C9.02047179,3.74633846 9.10621538,4.56808205 9.10621538,5.52192821 C9.10621538,5.61833846 9.08693333,5.69956923 9.05042051,5.76644103 C9.01308718,5.83290256 8.94662564,5.86613333 8.85062564,5.86613333 L2.22457436,5.86613333 C2.25411282,6.48069744 2.35421538,7.00951795 2.52447179,7.45341538 C2.69472821,7.89731282 2.93144615,8.26326154 3.23462564,8.55208205 C3.53780513,8.84049231 3.90662564,9.05300513 4.3390359,9.18962051 C4.77185641,9.32705641 5.26539487,9.39515897 5.82047179,9.39515897 C6.24221538,9.39515897 6.65862564,9.35331282 7.06929231,9.26756923 C7.47995897,9.18305641 7.91442051,9.05505641 8.37308718,8.8848 C8.43954872,8.8622359 8.48795897,8.85156923 8.51749744,8.85156923 C8.56918974,8.85156923 8.61144615,8.86674872 8.64467692,8.89546667 C8.67831795,8.92541538 8.70211282,8.98859487 8.71688205,9.08418462 C8.73944615,9.26182564 8.76488205,9.4382359 8.79483077,9.61218462 C8.82436923,9.78572308 8.85390769,9.95762051 8.88385641,10.1278769 C8.88385641,10.1873641 8.8670359,10.2312615 8.83380513,10.2612103 C8.8001641,10.2907487 8.76488205,10.3129026 8.72836923,10.3276718 C8.21021538,10.5496205 7.66867692,10.7178256 7.10252308,10.8326974 C6.53677949,10.947159 5.97595897,11.0045949 5.42088205,11.0045949 C4.60734359,11.0045949 3.87831795,10.8823385 3.23462564,10.6382359 C2.59093333,10.3945436 2.04693333,10.0376205 1.6030359,9.56746667 C1.15872821,9.09772308 0.818625641,8.52213333 0.581907692,7.84151795 C0.345189744,7.16090256 0.227035897,6.38387692 0.227035897,5.51085128" id="Fill-21" fill="#5B666F" mask="url(#mask-2)"></path>
                </g>
                <path d="M121.358031,48.9008821 C121.358031,49.2573949 121.403569,49.5568821 121.495056,49.7989333 C121.585723,50.0418051 121.710851,50.2354462 121.870031,50.3794462 C122.029621,50.5234462 122.219159,50.6256 122.438646,50.6867282 C122.658544,50.7470359 122.897313,50.7769846 123.155364,50.7769846 C123.208287,50.7769846 123.295262,50.7732923 123.417108,50.7659077 C123.537723,50.7585231 123.648082,50.7507282 123.746544,50.7433436 C123.837621,50.7433436 123.886441,50.7921641 123.894646,50.8910359 L124.008287,52.1074462 C124.008287,52.175959 123.994749,52.2235487 123.968492,52.2502154 C123.941826,52.2768821 123.906133,52.2973949 123.860595,52.3125744 C123.594749,52.3654974 123.344903,52.399959 123.110236,52.4151385 C122.874338,52.4303179 122.594133,52.4377026 122.267979,52.4377026 C121.714544,52.4377026 121.248492,52.3560615 120.869415,52.1931897 C120.489928,52.0303179 120.185108,51.795241 119.953313,51.4883692 C119.722338,51.1814974 119.557005,50.8114462 119.458544,50.3794462 C119.360492,49.9474462 119.311262,49.4580103 119.311262,48.911959 L119.311262,37.8001641 L118.105518,37.5162667 C118.022236,37.5010872 117.966851,37.4690872 117.940595,37.4194462 C117.913928,37.3706256 117.90039,37.3267282 117.90039,37.2885744 L117.90039,36.5497026 C117.90039,36.4130872 117.984082,36.3371897 118.151467,36.3220103 L121.08521,36.0717538 C121.168492,36.0717538 121.234954,36.0984205 121.284595,36.1513436 C121.333415,36.2046769 121.358031,36.2731897 121.358031,36.3560615 L121.358031,48.9008821 Z" id="Fill-24" fill="#5B666F"></path>
                <path d="M126.726195,46.836759 C126.726195,47.5858872 126.800451,48.216041 126.948144,48.7272205 C127.095426,49.2384 127.300554,49.6531692 127.562297,49.9715282 C127.824041,50.2894769 128.130913,50.5163487 128.483323,50.6529641 C128.836144,50.788759 129.216862,50.8572718 129.626708,50.8572718 C130.028349,50.8572718 130.401682,50.788759 130.747118,50.6529641 C131.092144,50.5163487 131.392862,50.2931692 131.650913,49.9821949 C131.908554,49.672041 132.109579,49.2609641 132.25399,48.7501949 C132.397579,48.2394256 132.469785,47.6088615 132.469785,46.8593231 C132.469785,46.1549128 132.401682,45.5514256 132.264656,45.048041 C132.128451,44.5442462 131.935221,44.1315282 131.684964,43.8098872 C131.435118,43.4882462 131.129067,43.2515282 130.769272,43.1001436 C130.409477,42.9483487 130.001272,42.8728615 129.546708,42.8728615 C129.084349,42.8728615 128.676964,42.9471179 128.324554,43.0944 C127.971323,43.2416821 127.677579,43.4751179 127.442913,43.7930667 C127.207836,44.1110154 127.029374,44.5212718 126.907938,45.0250667 C126.786913,45.5288615 126.726195,46.1323487 126.726195,46.836759 M124.62199,46.7850667 C124.62199,45.800041 124.747528,44.9581949 124.997374,44.2603487 C125.247631,43.5633231 125.594297,42.9922462 126.038195,42.548759 C126.481682,42.1052718 127.00681,41.7795282 127.613579,41.5707077 C128.219938,41.3622974 128.875528,41.2576821 129.580759,41.2576821 C130.263426,41.2576821 130.909579,41.3622974 131.520041,41.5707077 C132.130503,41.7795282 132.665067,42.1073231 133.124144,42.5545026 C133.5824,43.0016821 133.944656,43.576041 134.209682,44.2775795 C134.475528,44.9791179 134.608041,45.8226051 134.608041,46.808041 C134.608041,47.8468103 134.473477,48.7243487 134.204349,49.4410667 C133.93481,50.1577846 133.570913,50.7395282 133.112246,51.1871179 C132.653579,51.6342974 132.120656,51.9563487 131.514297,52.1536821 C130.907528,52.3501949 130.27081,52.4490667 129.603733,52.4490667 C128.944041,52.4490667 128.312656,52.3489641 127.70999,52.1479385 C127.107323,51.9469128 126.578503,51.6228103 126.123528,51.1752205 C125.668554,50.728041 125.304656,50.1442462 125.031836,49.4238359 C124.758605,48.7034256 124.62199,47.8238359 124.62199,46.7850667" id="Fill-26" fill="#5B666F"></path>
                <path d="M136.188554,51.7666462 C136.143015,51.7518769 136.103221,51.7268513 136.069169,51.6928 C136.035118,51.6587487 136.018297,51.6152615 136.018297,51.5623385 L136.177477,50.5042872 C136.184451,50.4283897 136.207426,50.3750564 136.245579,50.3451077 C136.283323,50.3147487 136.332554,50.2995692 136.393272,50.2995692 C136.613169,50.3377231 136.857682,50.3869538 137.12681,50.4472615 C137.395938,50.5083897 137.684349,50.5686974 137.991631,50.6298256 C138.298503,50.6901333 138.622605,50.7455179 138.963938,50.7943385 C139.305272,50.8435692 139.653579,50.8722872 140.009682,50.8796718 C140.35881,50.8948513 140.677169,50.8665436 140.965579,50.7943385 C141.253579,50.7225436 141.499733,50.6162872 141.704451,50.4759795 C141.909169,50.3356718 142.066708,50.1633641 142.176656,49.9582359 C142.286195,49.7535179 142.341579,49.5188513 142.341579,49.2534154 C142.341579,49.0257231 142.286195,48.8345436 142.176656,48.6790564 C142.066708,48.5239795 141.905477,48.3894154 141.692964,48.2753641 C141.480451,48.1617231 141.217477,48.059159 140.90281,47.9676718 C140.588144,47.8774154 140.222195,47.7863385 139.804964,47.6952615 C139.312246,47.5816205 138.853579,47.4503385 138.429374,47.3026462 C138.004349,47.1553641 137.633067,46.9600821 137.314708,46.7172103 C136.995938,46.4747487 136.745682,46.171159 136.563528,45.8076718 C136.382195,45.4429538 136.291118,44.9888 136.291118,44.4423385 C136.291118,43.8433641 136.402708,43.3412103 136.626297,42.9354667 C136.849887,42.5297231 137.147733,42.2023385 137.519426,41.9516718 C137.890297,41.7014154 138.319015,41.5233641 138.804349,41.4166974 C139.289682,41.3112615 139.79799,41.2579282 140.328862,41.2579282 C140.874092,41.2579282 141.435323,41.2993641 142.011323,41.3830564 C142.587733,41.4667487 143.152656,41.6214154 143.706092,41.8491077 C143.774195,41.8794667 143.820144,41.9139282 143.842708,41.9516718 C143.865682,41.9898256 143.876349,42.0386462 143.876349,42.0993641 L143.729067,44.1239795 C143.713887,44.2601846 143.645374,44.3286974 143.524349,44.3286974 L142.876144,44.3286974 C142.815015,44.3286974 142.771528,44.3135179 142.745272,44.283159 C142.718605,44.2532103 142.697682,44.2076718 142.682913,44.1465436 L142.375221,42.9752615 C142.216041,42.9375179 141.975221,42.8899282 141.653169,42.8333128 C141.330708,42.7762872 140.961477,42.7483897 140.544246,42.7483897 C139.808656,42.7483897 139.233067,42.8673641 138.815836,43.1061333 C138.399015,43.3449026 138.190195,43.7141333 138.190195,44.2150564 C138.190195,44.4956718 138.277169,44.7270564 138.451938,44.9083897 C138.625887,45.0909538 138.857272,45.2460308 139.145272,45.3752615 C139.433272,45.5040821 139.761887,45.6181333 140.129067,45.7161846 C140.497067,45.8146462 140.8704,45.9213128 141.249477,46.0345436 C141.628964,46.1485949 142.001887,46.2815179 142.369887,46.4329026 C142.737477,46.5846974 143.065272,46.7779282 143.353682,47.0125949 C143.641682,47.2480821 143.872656,47.5360821 144.047015,47.8774154 C144.222195,48.2187487 144.308759,48.6318769 144.308759,49.1168 C144.308759,49.7309538 144.193477,50.2507487 143.962092,50.6749538 C143.731118,51.0999795 143.425887,51.4425436 143.04681,51.7042872 C142.667733,51.9656205 142.231221,52.155159 141.738503,52.2724923 C141.245785,52.3906462 140.734195,52.4489026 140.203323,52.4489026 C139.748349,52.4489026 139.310195,52.4246974 138.889682,52.3746462 C138.469169,52.3258256 138.081887,52.2655179 137.729887,52.1933128 C137.376656,52.1211077 137.068144,52.0472615 136.802708,51.9713641 C136.537682,51.8954667 136.332554,51.8273641 136.188554,51.7666462" id="Fill-28" fill="#5B666F"></path>
                <path d="M158.684144,46.6372513 C158.684144,46.1748923 158.641067,45.7162256 158.554092,45.2612513 C158.466708,44.8062769 158.316554,44.3993026 158.104451,44.0390974 C157.891938,43.6788923 157.601887,43.3863795 157.234297,43.1627897 C156.866297,42.9392 156.405579,42.8276103 155.852554,42.8276103 C155.367221,42.8276103 154.904451,42.9527385 154.465067,43.2029949 C154.025272,43.452841 153.608041,43.7675077 153.213785,44.1465846 L153.213785,50.5158154 C153.555118,50.6216615 153.905887,50.697559 154.265682,50.7435077 C154.625477,50.7886359 154.965579,50.8116103 155.283528,50.8116103 C155.791836,50.8116103 156.254195,50.7299692 156.671426,50.5666872 C157.088246,50.4042256 157.4464,50.1515077 157.746297,49.8101744 C158.045785,49.468841 158.277169,49.0356103 158.440041,48.5084308 C158.602913,47.9812513 158.684144,47.3580718 158.684144,46.6372513 Z M149.972759,42.793559 C149.889067,42.7705846 149.834092,42.7344821 149.807426,42.6852513 C149.780759,42.6360205 149.768041,42.5929436 149.768041,42.5543795 L149.768041,41.8150974 C149.768041,41.7396103 149.790605,41.6829949 149.836144,41.6444308 C149.881682,41.6066872 149.938708,41.5841231 150.0064,41.5763282 L152.691118,41.3716103 C152.849887,41.3716103 152.940964,41.4553026 152.963938,41.6214564 L153.123118,42.6454564 C153.699528,42.1675077 154.259938,41.8192 154.80599,41.5993026 C155.352041,41.3798154 155.916554,41.2694564 156.500759,41.2694564 C157.33481,41.2694564 158.026503,41.4192 158.576246,41.7186872 C159.12599,42.0177641 159.562092,42.4181744 159.884554,42.9186872 C160.206195,43.4187897 160.433887,43.9952 160.56681,44.6470974 C160.698913,45.2989949 160.765785,45.9779692 160.765785,46.6827897 C160.765785,47.6083282 160.636964,48.428841 160.379323,49.1451487 C160.121272,49.8614564 159.761067,50.4665846 159.298708,50.9593026 C158.835938,51.4520205 158.284144,51.8257641 157.644144,52.0797128 C157.002913,52.3336615 156.299733,52.4604308 155.534195,52.4604308 C155.170297,52.4604308 154.800246,52.4317128 154.424862,52.3746872 C154.049477,52.3184821 153.634708,52.2446359 153.180144,52.153559 C153.180144,52.3279179 153.183836,52.5022769 153.19081,52.6766359 C153.198605,52.8509949 153.202708,53.0520205 153.202708,53.2793026 L153.202708,56.6914051 C153.202708,56.7521231 153.185477,56.8091487 153.151426,56.8620718 C153.117374,56.9149949 153.058297,56.9416615 152.975015,56.9416615 L151.394297,56.9416615 C151.310605,56.9416615 151.251938,56.9149949 151.217887,56.8620718 C151.183836,56.8091487 151.167015,56.7521231 151.167015,56.6914051 L151.167015,43.0893538 L149.972759,42.793559 Z" id="Fill-30" fill="#5B666F"></path>
                <path d="M170.469785,52.2782769 C170.409067,52.2782769 170.347938,52.265559 170.28681,52.2384821 C170.225682,52.2122256 170.187938,52.153559 170.172349,52.0624821 L169.955323,50.8116103 C169.325579,51.3346872 168.704041,51.7400205 168.090297,52.0284308 C167.475733,52.3164308 166.812349,52.4604308 166.099733,52.4604308 C165.636964,52.4604308 165.221785,52.3886359 164.854195,52.2446359 C164.486605,52.1002256 164.175221,51.8955077 163.921682,51.6300718 C163.667323,51.3646359 163.474092,51.0442256 163.34199,50.6692513 C163.208656,50.2938667 163.142605,49.8713026 163.142605,49.4011487 L163.142605,43.1004308 L161.948349,42.8046359 C161.865067,42.7820718 161.810503,42.7463795 161.783426,42.6967385 C161.757169,42.6470974 161.743221,42.6036103 161.743221,42.5658667 L161.743221,41.8380718 C161.743221,41.7621744 161.766605,41.705559 161.811733,41.6678154 C161.857272,41.6296615 161.914297,41.6066872 161.98281,41.5993026 L164.92681,41.3601231 C165.08681,41.3601231 165.174605,41.4553026 165.189785,41.6444308 L165.189785,48.8210462 C165.189785,50.1556103 165.771938,50.8226872 166.937067,50.8226872 C167.488862,50.8226872 168.013169,50.6803282 168.508349,50.3960205 C169.003938,50.1121231 169.451938,49.7650462 169.852759,49.3556103 L169.852759,41.7810462 C169.852759,41.7207385 169.869579,41.6637128 169.904041,41.6107897 C169.938503,41.5574564 169.99799,41.5307897 170.081682,41.5307897 L171.671836,41.5307897 C171.755118,41.5307897 171.814195,41.5574564 171.848656,41.6107897 C171.882708,41.6637128 171.899938,41.7207385 171.899938,41.7810462 L171.899938,50.7656615 L173.059733,51.0388923 C173.128246,51.0540718 173.175836,51.084841 173.202503,51.1299692 C173.228759,51.1755077 173.242297,51.2173538 173.242297,51.2546872 L173.242297,51.9033026 C173.242297,52.0399179 173.16599,52.1158154 173.014605,52.1309949 C172.575221,52.153559 172.141579,52.1818667 171.715323,52.2159179 C171.289477,52.2503795 170.873887,52.2708923 170.469785,52.2782769" id="Fill-32" fill="#5B666F"></path>
                <path d="M179.064738,42.8159179 C178.670482,42.8159179 178.316021,42.8868923 178.001354,43.0276103 C177.686687,43.1683282 177.415508,43.3623795 177.188226,43.6101744 C176.960944,43.8571487 176.775097,44.1521231 176.630687,44.4946872 C176.487097,44.8376615 176.388226,45.2105846 176.335303,45.6134564 L181.316636,45.6134564 C181.263303,44.7076103 181.058585,44.0155077 180.702482,43.5355077 C180.345969,43.0559179 179.799918,42.8159179 179.064738,42.8159179 M174.231097,46.8196103 C174.231097,46.0159179 174.337764,45.2708923 174.549456,44.5845333 C174.761969,43.8985846 175.070892,43.3069949 175.476636,42.8101744 C175.881969,42.3137641 176.382482,41.924841 176.977764,41.6446359 C177.572636,41.3644308 178.253251,41.2237128 179.0192,41.2237128 C179.75479,41.2237128 180.393149,41.3336615 180.935918,41.5539692 C181.477456,41.7738667 181.925046,42.1106872 182.277867,42.5660718 C182.629867,43.0206359 182.893662,43.6007385 183.068021,44.3063795 C183.242379,45.0112 183.329764,45.8526359 183.329764,46.8310974 C183.329764,46.9291487 183.310892,47.0124308 183.272738,47.0809436 C183.234995,47.1494564 183.166482,47.1835077 183.068021,47.1835077 L176.278277,47.1835077 C176.308226,47.812841 176.41079,48.3547897 176.585149,48.8097641 C176.759918,49.2647385 177.002379,49.6397128 177.312944,49.9355077 C177.624328,50.2313026 178.001354,50.4491487 178.444841,50.5894564 C178.888328,50.7297641 179.394585,50.8003282 179.9632,50.8003282 C180.39561,50.8003282 180.821867,50.7560205 181.24279,50.6694564 C181.663303,50.5820718 182.109251,50.4512 182.578995,50.2772513 C182.647097,50.2542769 182.696738,50.2427897 182.726687,50.2427897 C182.780021,50.2427897 182.823097,50.2579692 182.857559,50.2883282 C182.89161,50.3182769 182.916226,50.3830974 182.931815,50.4819692 C182.953969,50.6633026 182.981046,50.8434051 183.010995,51.0218667 C183.041354,51.2003282 183.071713,51.3763282 183.102072,51.5506872 C183.102072,51.6114051 183.085251,51.6569436 183.05079,51.6868923 C183.017149,51.7172513 182.981046,51.7402256 182.942892,51.7554051 C182.412431,51.9830974 181.857354,52.1554051 181.276841,52.2727385 C180.697149,52.3904821 180.122379,52.4487385 179.553354,52.4487385 C178.719303,52.4487385 177.973046,52.3244308 177.312944,52.0737641 C176.653662,51.8235077 176.096533,51.457559 175.641149,50.9767385 C175.186174,50.4950974 174.837456,49.905559 174.594585,49.2077128 C174.352533,48.5102769 174.231097,47.7139692 174.231097,46.8196103" id="Fill-34" fill="#5B666F"></path>
                <path d="M193.247015,46.6260103 C193.247015,46.1636513 193.203528,45.7066256 193.116144,45.2557538 C193.029169,44.8048821 192.878195,44.3991385 192.6624,44.0389333 C192.446605,43.6787282 192.157785,43.3866256 191.794297,43.1630359 C191.43081,42.9394462 190.972964,42.8274462 190.420759,42.8274462 C189.936656,42.8274462 189.473477,42.9566769 189.0304,43.2143179 C188.588144,43.4723692 188.170092,43.7870359 187.776246,44.1579077 L187.776246,50.5041641 C187.950195,50.5574974 188.220554,50.6198564 188.588144,50.6920615 C188.954913,50.7642667 189.376656,50.8003692 189.853374,50.8003692 C190.360041,50.8003692 190.82199,50.7191385 191.2384,50.5554462 C191.65399,50.3925744 192.011323,50.1402667 192.31081,49.7989333 C192.609067,49.4580103 192.840041,49.023959 193.002503,48.4971897 C193.165785,47.9700103 193.247015,47.3464205 193.247015,46.6260103 Z M184.512246,37.4932923 C184.451938,37.4781128 184.403938,37.4551385 184.370297,37.4247795 C184.335836,37.3948308 184.319015,37.3497026 184.319015,37.2885744 L184.319015,36.5607795 C184.319015,36.4848821 184.341579,36.4282667 184.386708,36.3905231 C184.433067,36.3523692 184.489682,36.3293949 184.557374,36.3220103 L187.513272,36.083241 C187.589579,36.083241 187.652349,36.1078564 187.70199,36.1570872 C187.751221,36.2063179 187.776246,36.2764718 187.776246,36.3675487 L187.776246,41.2007795 L187.776246,41.8949333 C187.776246,42.1300103 187.772144,42.3687795 187.765169,42.611241 C188.287426,42.179241 188.826503,41.8473436 189.383221,41.615959 C189.939528,41.3849846 190.501579,41.2692923 191.069785,41.2692923 C191.902605,41.2692923 192.591015,41.4194462 193.136246,41.7185231 C193.681887,42.0180103 194.116349,42.4180103 194.442503,42.9185231 C194.768246,43.4190359 194.995118,43.9929846 195.123528,44.6411897 C195.252349,45.2893949 195.316759,45.9667282 195.316759,46.6715487 C195.316759,47.5966769 195.189579,48.4171897 194.935631,49.1339077 C194.681682,49.8506256 194.323118,50.4553436 193.860759,50.9476513 C193.3984,51.4407795 192.848656,51.8141128 192.211938,52.0680615 C191.575221,52.3224205 190.873682,52.4487795 190.108144,52.4487795 C189.675733,52.4487795 189.233887,52.4163692 188.783015,52.3523692 C188.331733,52.2883692 187.907118,52.2120615 187.509169,52.1246769 C187.111221,52.0377026 186.754708,51.9486769 186.440041,51.8576 C186.125374,51.7665231 185.888656,51.6947282 185.729067,51.6418051 L185.729067,37.8120615 L184.512246,37.4932923 Z" id="Fill-36" fill="#5B666F"></path>
                <path d="M199.752246,48.9008821 C199.752246,49.2573949 199.797785,49.5568821 199.888862,49.7989333 C199.979938,50.0418051 200.104656,50.2354462 200.263836,50.3794462 C200.423426,50.5234462 200.613374,50.6256 200.832862,50.6867282 C201.052759,50.7470359 201.291528,50.7769846 201.549169,50.7769846 C201.602503,50.7769846 201.689477,50.7732923 201.811323,50.7659077 C201.931938,50.7585231 202.042297,50.7507282 202.140349,50.7433436 C202.231836,50.7433436 202.280656,50.7921641 202.288862,50.8910359 L202.402503,52.1074462 C202.402503,52.175959 202.388964,52.2235487 202.362297,52.2502154 C202.335631,52.2768821 202.300349,52.2973949 202.2544,52.3125744 C201.988964,52.3654974 201.739118,52.399959 201.504041,52.4151385 C201.268554,52.4303179 200.988349,52.4377026 200.662195,52.4377026 C200.108759,52.4377026 199.642297,52.3560615 199.263631,52.1931897 C198.884144,52.0303179 198.579323,51.795241 198.347528,51.4883692 C198.116554,51.1814974 197.951221,50.8114462 197.852759,50.3794462 C197.754297,49.9474462 197.705477,49.4580103 197.705477,48.911959 L197.705477,37.8001641 L196.499323,37.5162667 C196.416451,37.5010872 196.361067,37.4690872 196.3344,37.4194462 C196.308144,37.3706256 196.294605,37.3267282 196.294605,37.2885744 L196.294605,36.5497026 C196.294605,36.4130872 196.378297,36.3371897 196.545682,36.3220103 L199.479426,36.0717538 C199.562708,36.0717538 199.629169,36.0984205 199.6784,36.1513436 C199.727631,36.2046769 199.752246,36.2731897 199.752246,36.3560615 L199.752246,48.9008821 Z" id="Fill-38" fill="#5B666F"></path>
                <path d="M205.12041,46.836759 C205.12041,47.5858872 205.194667,48.216041 205.342359,48.7272205 C205.489641,49.2384 205.694359,49.6531692 205.956513,49.9715282 C206.218256,50.2894769 206.525128,50.5163487 206.877128,50.6529641 C207.230359,50.788759 207.611077,50.8572718 208.020513,50.8572718 C208.422564,50.8572718 208.795487,50.788759 209.140923,50.6529641 C209.485949,50.5163487 209.787077,50.2931692 210.045128,49.9821949 C210.302359,49.672041 210.503385,49.2609641 210.647795,48.7501949 C210.791385,48.2394256 210.86359,47.6088615 210.86359,46.8593231 C210.86359,46.1549128 210.795897,45.5514256 210.658872,45.048041 C210.522667,44.5442462 210.329026,44.1315282 210.079179,43.8098872 C209.829333,43.4882462 209.523282,43.2515282 209.163487,43.1001436 C208.803692,42.9483487 208.395487,42.8728615 207.940923,42.8728615 C207.478564,42.8728615 207.071179,42.9471179 206.718359,43.0944 C206.365538,43.2416821 206.071795,43.4751179 205.837128,43.7930667 C205.601641,44.1110154 205.42359,44.5212718 205.302154,45.0250667 C205.180718,45.5288615 205.12041,46.1323487 205.12041,46.836759 M203.016205,46.7850667 C203.016205,45.800041 203.141744,44.9581949 203.39159,44.2603487 C203.641846,43.5633231 203.988513,42.9922462 204.43241,42.548759 C204.875897,42.1052718 205.400615,41.7795282 206.007795,41.5707077 C206.614154,41.3622974 207.269744,41.2576821 207.974974,41.2576821 C208.657231,41.2576821 209.303795,41.3622974 209.914256,41.5707077 C210.524308,41.7795282 211.058872,42.1073231 211.517949,42.5545026 C211.976615,43.0016821 212.338872,43.576041 212.603897,44.2775795 C212.869333,44.9791179 213.002256,45.8226051 213.002256,46.808041 C213.002256,47.8468103 212.867692,48.7243487 212.598564,49.4410667 C212.328615,50.1577846 211.965128,50.7395282 211.506051,51.1871179 C211.047795,51.6342974 210.514872,51.9563487 209.908513,52.1536821 C209.301744,52.3501949 208.665026,52.4490667 207.997949,52.4490667 C207.338256,52.4490667 206.706872,52.3489641 206.104205,52.1479385 C205.501538,51.9469128 204.972718,51.6228103 204.517333,51.1752205 C204.062769,50.728041 203.698872,50.1442462 203.426051,49.4238359 C203.152821,48.7034256 203.016205,47.8238359 203.016205,46.7850667" id="Fill-40" fill="#5B666F"></path>
                <path d="M214.582769,51.7666462 C214.537641,51.7518769 214.497846,51.7268513 214.463385,51.6928 C214.429333,51.6587487 214.412103,51.6152615 214.412103,51.5623385 L214.572103,50.5042872 C214.579077,50.4283897 214.602051,50.3750564 214.639795,50.3451077 C214.677538,50.3147487 214.726769,50.2995692 214.787487,50.2995692 C215.007385,50.3377231 215.251897,50.3869538 215.521436,50.4472615 C215.789744,50.5083897 216.078564,50.5686974 216.385846,50.6298256 C216.692718,50.6901333 217.016821,50.7455179 217.358154,50.7943385 C217.699077,50.8435692 218.047385,50.8722872 218.403897,50.8796718 C218.752615,50.8948513 219.070974,50.8665436 219.360205,50.7943385 C219.647795,50.7225436 219.894359,50.6162872 220.099077,50.4759795 C220.303385,50.3356718 220.460923,50.1633641 220.570872,49.9582359 C220.680821,49.7535179 220.735795,49.5188513 220.735795,49.2534154 C220.735795,49.0257231 220.680821,48.8345436 220.570872,48.6790564 C220.460923,48.5239795 220.300103,48.3894154 220.08759,48.2753641 C219.875077,48.1617231 219.611692,48.059159 219.297026,47.9676718 C218.982769,47.8774154 218.61641,47.7863385 218.19959,47.6952615 C217.706462,47.5816205 217.247795,47.4503385 216.82359,47.3026462 C216.398974,47.1553641 216.027282,46.9600821 215.708513,46.7172103 C215.390564,46.4747487 215.139897,46.171159 214.958154,45.8076718 C214.77641,45.4429538 214.685333,44.9888 214.685333,44.4423385 C214.685333,43.8433641 214.796923,43.3412103 215.020513,42.9354667 C215.244513,42.5297231 215.542359,42.2023385 215.913231,41.9516718 C216.284923,41.7014154 216.713231,41.5233641 217.198974,41.4166974 C217.683897,41.3112615 218.191795,41.2579282 218.722667,41.2579282 C219.268718,41.2579282 219.829538,41.2993641 220.405949,41.3830564 C220.982359,41.4667487 221.547282,41.6214154 222.100718,41.8491077 C222.168821,41.8794667 222.214359,41.9139282 222.236923,41.9516718 C222.259897,41.9898256 222.270974,42.0386462 222.270974,42.0993641 L222.123282,44.1239795 C222.108103,44.2601846 222.04,44.3286974 221.918564,44.3286974 L221.270359,44.3286974 C221.209641,44.3286974 221.166154,44.3135179 221.139077,44.283159 C221.113231,44.2532103 221.092308,44.2076718 221.077128,44.1465436 L220.769846,42.9752615 C220.610667,42.9375179 220.369846,42.8899282 220.047795,42.8333128 C219.725333,42.7762872 219.355692,42.7483897 218.938462,42.7483897 C218.203282,42.7483897 217.626872,42.8673641 217.209641,43.1061333 C216.792821,43.3449026 216.584821,43.7141333 216.584821,44.2150564 C216.584821,44.4956718 216.671795,44.7270564 216.846154,44.9083897 C217.020103,45.0909538 217.251487,45.2460308 217.539897,45.3752615 C217.827897,45.5040821 218.155692,45.6181333 218.523692,45.7161846 C218.891692,45.8146462 219.264615,45.9213128 219.644103,46.0345436 C220.022769,46.1485949 220.396513,46.2815179 220.764103,46.4329026 C221.132103,46.5846974 221.459897,46.7779282 221.747897,47.0125949 C222.035897,47.2480821 222.267282,47.5360821 222.441641,47.8774154 C222.616,48.2187487 222.703385,48.6318769 222.703385,49.1168 C222.703385,49.7309538 222.588103,50.2507487 222.356308,50.6749538 C222.125333,51.0999795 221.820103,51.4425436 221.441026,51.7042872 C221.061538,51.9656205 220.625436,52.155159 220.132718,52.2724923 C219.64,52.3906462 219.128,52.4489026 218.597949,52.4489026 C218.142974,52.4489026 217.704821,52.4246974 217.283897,52.3746462 C216.863385,52.3258256 216.476513,52.2655179 216.124103,52.1933128 C215.771282,52.1211077 215.462359,52.0472615 215.196923,51.9713641 C214.931487,51.8954667 214.726769,51.8273641 214.582769,51.7666462" id="Fill-42" fill="#5B666F"></path>
                <path d="M209.052308,38.2097641 L209.052308,36.6130462 L206.809436,36.6130462 L206.809436,38.217559 C205.885128,38.3402256 205.115487,38.5863795 204.509128,38.8501744 L204.509128,41.0827897 L205.111385,40.7652513 C205.707077,40.4505846 206.681026,40.0743795 207.931077,40.0657641 C209.256615,40.0657641 210.253949,40.4464821 210.857436,40.7656615 L211.458872,41.0836103 L211.458872,38.8509949 C210.833641,38.5794051 210.029949,38.329559 209.052308,38.2097641" id="Fill-44" fill="#EC7D18"></path>
                <path d="M87.9245128,9.83634872 L87.9245128,62.2244513" id="Fill-46" fill="#5B666F"></path>
                <path d="M87.9245128,9.83634872 C88.0266667,12.0189128 88.0701538,14.2018872 88.1448205,16.3848615 L88.2711795,22.9333744 C88.353641,27.2989128 88.3651282,31.6648615 88.3770256,36.0304 C88.366359,40.3959385 88.3544615,44.7618872 88.2728205,49.1270154 L88.1464615,55.6759385 C88.0709744,57.8589128 88.0270769,60.0414769 87.9245128,62.2244513 C87.8219487,60.0414769 87.7780513,57.8589128 87.7029744,55.6759385 L87.5766154,49.1270154 C87.4945641,44.7618872 87.4826667,40.3959385 87.4724103,36.0304 C87.4838974,31.6648615 87.4953846,27.2989128 87.5782564,22.9333744 L87.7042051,16.3848615 C87.7788718,14.2018872 87.8227692,12.0189128 87.9245128,9.83634872" id="Fill-48" fill="#5B666F"></path>
                <polygon id="Fill-50" fill="#45B7C5" points="181.757046 66.8075077 179.282379 64.332841 181.757046 61.8585846 184.231303 64.332841"></polygon>
                <polygon id="Fill-52" fill="#00A482" points="175.632862 66.8075077 173.158195 64.332841 175.632862 61.8585846 178.107118 64.332841"></polygon>
                <polygon id="Fill-54" fill="#C1D000" points="169.607221 66.8075077 167.132554 64.332841 169.607221 61.8585846 172.081477 64.332841"></polygon>
                <polygon id="Fill-56" fill="#DE004D" points="163.384451 66.8075077 160.909785 64.332841 163.384451 61.8585846 165.858708 64.332841"></polygon>
                <polygon id="Fill-58" fill="#EB7D1E" points="157.260267 66.8075077 154.7856 64.332841 157.260267 61.8585846 159.734523 64.332841"></polygon>
                <path d="M54.5134769,0.000205128205 L9.58547692,0.000205128205 C8.85522051,0.000205128205 8.26363077,0.591794872 8.26363077,1.32246154 L8.26363077,34.8699487 C8.26363077,47.9858462 18.9335795,58.6562051 32.0494769,58.6562051 C45.1649641,58.6562051 55.8357333,47.9858462 55.8357333,34.8699487 L55.8357333,1.32246154 C55.8357333,0.591794872 55.2433231,0.000205128205 54.5134769,0.000205128205 M54.5134769,1.32246154 L54.5134769,34.8699487 C54.5134769,47.2568205 44.4363487,57.3339487 32.0494769,57.3339487 C19.6626051,57.3339487 9.58547692,47.2568205 9.58547692,34.8699487 L9.58547692,1.32246154 L54.5134769,1.32246154" id="Fill-60" fill="#5B666F"></path>
                <path d="M48.8916513,34.8700308 C48.8916513,43.9502359 41.7051897,51.3479795 32.7103179,51.6958769 L32.7103179,6.94387692 L48.8916513,6.94387692 L48.8916513,34.8700308 Z M15.2071385,34.8700308 L15.2071385,29.7159795 L31.3884718,29.7159795 L31.3884718,51.6958769 C22.3931897,51.3479795 15.2071385,43.9502359 15.2071385,34.8700308 Z M15.2071385,28.3941333 L31.3884718,28.3941333 L31.3884718,6.94387692 L15.2071385,6.94387692 L15.2071385,28.3941333 Z M48.8916513,5.62162051 L15.2071385,5.62162051 C14.4764718,5.62162051 13.8848821,6.21362051 13.8848821,6.94387692 L13.8848821,34.8700308 C13.8848821,44.8860308 22.0333949,53.0345436 32.0493949,53.0345436 C42.0653949,53.0345436 50.2139077,44.8860308 50.2139077,34.8700308 L50.2139077,6.94387692 C50.2139077,6.21362051 49.6219077,5.62162051 48.8916513,5.62162051 Z" id="Fill-62" fill="#5B666F"></path>
                <polygon id="Fill-64" fill="#5B666F" points="31.3842051 4.17764103 32.7565128 4.17764103 32.7565128 2.80533333 31.3842051 2.80533333"></polygon>
                <polygon id="Fill-66" fill="#5B666F" points="11.4777436 4.44225641 12.8500513 4.44225641 12.8500513 3.06994872 11.4777436 3.06994872"></polygon>
                <polygon id="Fill-67" fill="#5B666F" points="52.7794872 4.43450256 51.4071795 4.44229744 51.3997949 3.0704 52.7716923 3.06219487"></polygon>
                <polygon id="Fill-68" fill="#5B666F" points="16.8931282 50.0262564 18.2654359 50.0262564 18.2654359 48.6539487 16.8931282 48.6539487"></polygon>
                <polygon id="Fill-69" fill="#5B666F" points="46.1275897 50.0262564 47.4998974 50.0262564 47.4998974 48.6539487 46.1275897 48.6539487"></polygon>
                <polygon id="Fill-70" fill="#5B666F" points="11.0810256 38.6633846 12.4533333 38.6633846 12.4533333 37.2910769 11.0810256 37.2910769"></polygon>
                <polygon id="Fill-71" fill="#5B666F" points="11.0810256 27.2562051 12.4533333 27.2562051 12.4533333 25.8838974 11.0810256 25.8838974"></polygon>
                <polygon id="Fill-72" fill="#5B666F" points="11.0810256 15.8490256 12.4533333 15.8490256 12.4533333 14.4767179 11.0810256 14.4767179"></polygon>
                <polygon id="Fill-73" fill="#5B666F" points="51.6681026 38.6642051 53.0404103 38.6642051 53.0404103 37.2923077 51.6681026 37.2923077"></polygon>
                <polygon id="Fill-74" fill="#5B666F" points="51.6681026 27.2570256 53.0404103 27.2570256 53.0404103 25.8847179 51.6681026 25.8847179"></polygon>
                <polygon id="Fill-75" fill="#5B666F" points="51.6681026 15.8494359 53.0404103 15.8494359 53.0404103 14.4771282 51.6681026 14.4771282"></polygon>
                <polygon id="Fill-76" fill="#5B666F" points="31.3842051 55.9163077 32.7565128 55.9163077 32.7565128 54.5444103 31.3842051 54.5444103"></polygon>
                <path d="M28.0022564,38.2454154 C28.5163077,38.1572103 29.0274872,38.0468513 29.5238974,37.9028513 L29.2473846,36.9502359 C28.902359,37.0503385 28.5491282,37.1307487 28.1934359,37.2025436 C28.2980513,36.4882872 28.3550769,35.7629538 28.3509744,35.0277744 C28.3489231,34.7377231 28.1589744,34.4829538 27.881641,34.3988513 C26.777641,34.0649026 25.6465641,33.8741333 24.5101538,33.8117744 C24.7485128,33.4601846 24.9774359,33.1003897 25.1825641,32.7291077 L24.313641,32.2499282 C24.1577436,32.5330051 23.9878974,32.8091077 23.8106667,33.0806974 C23.6334359,32.8095179 23.4631795,32.5330051 23.3064615,32.2499282 L22.4387692,32.7291077 C22.6430769,33.099159 22.8699487,33.4560821 23.1066667,33.8056205 C21.9530256,33.8569026 20.8030769,34.0394667 19.6793846,34.3717744 C19.4004103,34.4546462 19.2075897,34.7094154 19.2055385,35.0006974 C19.1993846,35.7477744 19.2588718,36.4845949 19.3651282,37.2103385 C18.9954872,37.1373128 18.6278974,37.0540308 18.2685128,36.9502359 L17.9924103,37.9028513 C18.5052308,38.0513641 19.0324103,38.1658256 19.561641,38.2540308 C19.8352821,39.4778256 20.2672821,40.654441 20.8510769,41.7592615 C20.4486154,42.0448 20.0330256,42.3118769 19.6067692,42.5469538 L20.0859487,43.4162872 C20.518359,43.1771077 20.9392821,42.9063385 21.3487179,42.6195692 C21.654359,43.1106462 21.9796923,43.5914667 22.3472821,44.0468513 C22.6607179,43.7186462 22.9524103,43.3736205 23.2293333,43.0179282 C21.5591795,40.8636718 20.6135385,38.2605949 20.5327179,35.5077744 C22.6701538,34.9645949 24.8941538,34.9719795 27.0221538,35.5299282 C26.950359,37.8290051 26.2779487,40.0263385 25.0832821,41.9422359 C24.5035897,42.9596718 23.7967179,43.9008 22.9745641,44.7520821 C23.0877949,44.8747487 23.1899487,45.0048 23.3072821,45.1241846 C23.4307692,45.2497231 23.6006154,45.3211077 23.7778462,45.3211077 C23.9546667,45.3211077 24.1245128,45.2497231 24.2484103,45.1241846 C25.0110769,44.3500308 25.6621538,43.4979282 26.2209231,42.5957744 C26.6414359,42.8923897 27.0746667,43.1709538 27.5185641,43.4162872 L27.9977436,42.5469538 C27.561641,42.3073641 27.1366154,42.0337231 26.7255385,41.7408 C27.3048205,40.6392615 27.7302564,39.4646974 28.0022564,38.2454154" id="Fill-77" fill="#5B666F"></path>
                <path d="M25.0875897,40.5563077 L24.2198974,40.0771282 C23.9171282,40.6252308 23.6672821,41.0149744 23.297641,41.5154872 L24.0951795,42.1042051 C24.4931282,41.5659487 24.7622564,41.1458462 25.0875897,40.5563077" id="Fill-78" fill="#5B666F"></path>
                <path d="M26.2662564,37.0258462 L25.3858462,36.5700513 C25.1257436,37.0722051 24.8278974,37.5636923 24.5013333,38.0305641 L25.3148718,38.5987692 C25.6660513,38.0957949 25.9860513,37.5665641 26.2662564,37.0258462" id="Fill-79" fill="#5B666F"></path>
                <path d="M23.7133949,37.3131077 C23.3987282,36.8417231 23.111959,36.3440821 22.8612923,35.8329026 L21.9714462,36.2690051 C22.2413949,36.8199795 22.5499077,37.3561846 22.887959,37.8628513 L23.7133949,37.3131077 Z" id="Fill-80" fill="#5B666F"></path>
                <path d="M22.5190564,40.5174564 L23.3346462,39.9533538 C23.0125949,39.4877128 22.718441,38.9945846 22.459159,38.4866872 L21.5758769,38.9383795 C21.8552615,39.4844308 22.1719795,40.0157128 22.5190564,40.5174564" id="Fill-81" fill="#5B666F"></path>
                <path d="M43.0118564,36.8331487 C43.0118564,43.2676103 39.9250872,45.0382769 38.4818051,45.5137641 L38.4818051,19.1863795 L43.0118564,19.1863795 L43.0118564,36.8331487 Z M46.7845744,20.7018667 L44.1408821,18.0585846 C44.0214974,17.9387897 43.8561641,17.8645333 43.6727795,17.8645333 L37.1595487,17.8645333 L37.1595487,46.3416615 C37.1595487,46.5275077 37.2379077,46.7047385 37.3749333,46.8294564 C37.4971897,46.9414564 37.6563692,47.0025846 37.8208821,47.0025846 C37.8405744,47.0025846 37.8598564,47.0017641 37.879959,47.0001231 C37.9443692,46.9943795 44.3341128,46.308841 44.3341128,36.8331487 L44.3341128,20.1213538 L45.655959,21.4427897 L45.655959,33.3755077 C46.3866256,33.3755077 46.9782154,32.7839179 46.9782154,32.0536615 L46.9782154,21.1691487 C46.9782154,20.9939692 46.9084718,20.8253538 46.7845744,20.7018667 Z" id="Fill-82" fill="#5B666F"></path>
                <polygon id="Fill-83" fill="#5B666F" points="34.5074872 33.4473846 35.8297436 33.4473846 35.8297436 17.8646154 34.5074872 17.8646154"></polygon>
                <path d="M39.7238154,12.9369436 L39.7238154,14.5102769 C39.7238154,14.8926359 40.0347897,15.2027897 40.4163282,15.2027897 C40.7986872,15.2027897 41.1096615,14.8926359 41.1096615,14.5102769 L41.1096615,12.9381744 C40.9221744,12.8667897 40.7035077,12.8056615 40.4007385,12.8089436 C40.1365333,12.8101744 39.908841,12.8659692 39.7238154,12.9369436 M40.4163282,16.5250462 C39.3053538,16.5250462 38.401559,15.6212513 38.401559,14.5102769 L38.401559,12.1595077 L38.7166359,11.9666872 C39.0674051,11.7504821 39.6429949,11.4924308 40.3904821,11.4866872 C41.1490462,11.4948923 41.7533538,11.7443282 42.1164308,11.9662769 L42.4319179,12.1595077 L42.4319179,14.5102769 C42.4319179,15.6212513 41.5273026,16.5250462 40.4163282,16.5250462" id="Fill-84" fill="#5B666F"></path>
                <path d="M41.0467282,9.30272821 L41.0467282,8.21185641 L39.7244718,8.21185641 L39.7244718,9.30806154 C39.179241,9.3921641 38.7259077,9.55995897 38.3681641,9.74006154 L38.3681641,11.2658051 L38.7234462,11.0487795 C39.0742154,10.8338051 39.6485744,10.5765744 40.3858051,10.571241 C41.1669333,10.571241 41.7548308,10.8313436 42.1109333,11.0496 L42.4649846,11.2666256 L42.4649846,9.74088205 C42.0965744,9.5550359 41.6227282,9.38436923 41.0467282,9.30272821" id="Fill-85" fill="#5B666F"></path>
                <polygon id="Fill-86" fill="#5B666F" points="36.7642667 12.9445333 35.8297026 12.0099692 35.8297026 10.8903795 34.5074462 10.8903795 34.5074462 12.0099692 33.5728821 12.9445333 34.5074462 13.8790974 35.8297026 13.8790974"></polygon>
                <polygon id="Fill-87" fill="#5B666F" points="34.5074872 16.5251282 35.8297436 16.5251282 35.8297436 15.1852308 34.5074872 15.1852308"></polygon>
                <path d="M21.0555487,16.2978872 C21.2463179,14.4944 21.8297026,12.8086564 22.7293949,11.3341949 C22.7630359,11.2796308 22.8016,11.2304 22.8442667,11.1881436 C23.1860103,10.8459897 23.7849846,10.8948103 24.0537026,11.3341949 C24.9476513,12.7996308 25.5293949,14.4742974 25.7238564,16.2646564 L26.8869333,15.1011692 C26.5911385,13.5294769 26.0200615,12.0185026 25.1819077,10.6457846 C24.8446769,10.0935795 24.2830359,9.7329641 23.6418051,9.65665641 C22.9968821,9.57952821 22.3654974,9.7969641 21.9097026,10.2531692 C21.791959,10.3705026 21.6885744,10.5026051 21.6011897,10.6453744 C20.7572923,12.0275282 20.1841641,13.5495795 19.8900103,15.1323487 L21.0555487,16.2978872 Z" id="Fill-88" fill="#5B666F"></path>
                <polygon id="Fill-89" fill="#5B666F" points="24.1019897 13.2706462 23.3984 13.9742359 22.6948103 13.2706462 23.3984 12.5670564"></polygon>
                <polygon id="Fill-90" fill="#5B666F" points="23.1609026 15.0651487 22.4573128 15.7687385 21.7537231 15.0651487 22.4573128 14.361559"></polygon>
                <polygon id="Fill-91" fill="#5B666F" points="25.0427077 15.0651487 24.3391179 15.7687385 23.6355282 15.0651487 24.3391179 14.361559"></polygon>
                <polygon id="Fill-92" fill="#5B666F" points="24.1019897 16.9425231 23.3984 17.6461128 22.6948103 16.9425231 23.3984 16.2389333"></polygon>
                <path d="M24.7610667,22.4621538 C24.6814769,22.6402051 24.5756308,22.7911795 24.4513231,22.9150769 C23.8100923,23.5567179 22.6876308,23.4746667 22.1584,22.6865641 L25.6837333,19.1612308 C25.5302974,20.3210256 25.2221949,21.432 24.7610667,22.4621538 Z M22.6864,20.7563077 L21.7309128,21.7113846 C21.4330667,20.9011282 21.2180923,20.0527179 21.1011692,19.1710769 L22.6864,20.7563077 Z M27.9803487,15.462359 L23.3875282,20.0551795 L19.0289641,15.6966154 C18.6420923,16.0838974 18.6420923,16.7115897 19.0289641,17.0988718 L19.6677333,17.737641 C19.6894769,19.5001026 20.0431179,21.2071795 20.7331692,22.8153846 C21.0576821,23.5710769 21.6336821,24.2164103 22.4070154,24.4957949 C23.4675282,24.8785641 24.6232205,24.6131282 25.3858872,23.8500513 C25.628759,23.6075897 25.8248615,23.3224615 25.9676308,23.0024615 C26.7130667,21.337641 27.0941949,19.5636923 27.1151179,17.7294359 L27.9803487,16.8646154 C28.3672205,16.4773333 28.3672205,15.849641 27.9803487,15.462359 Z" id="Fill-93" fill="#5B666F"></path>
                <path d="M8.72902564,71.9990154 C8.71507692,71.6064 8.6974359,71.0476308 8.67446154,70.3239385 C8.65230769,69.6002462 8.62276923,68.680041 8.58666667,67.5629128 C8.55015385,66.4461949 8.5054359,65.0742974 8.45087179,63.4513231 C8.45087179,63.4049641 8.44841026,63.3557333 8.44389744,63.3024 C8.43774359,63.2416821 8.42748718,63.1895795 8.41148718,63.1432205 C8.39261538,63.0849641 8.36348718,63.0369641 8.32615385,63.000041 C8.29374359,62.968041 8.23548718,62.9302974 8.13948718,62.9302974 L6.84512821,62.9302974 C6.70441026,62.9302974 6.62892308,62.9996308 6.58953846,63.0591179 C6.54933333,63.1210667 6.52676923,63.1592205 6.51938462,63.1772718 L4.80820513,68.0650667 C4.73928205,68.2217846 4.68553846,68.3702974 4.6465641,68.5093744 L4.60841026,68.3526564 C4.58297436,68.2455795 4.55548718,68.1524513 4.52758974,68.0736821 L2.86153846,63.2306051 C2.84430769,63.1752205 2.81476923,63.1181949 2.77128205,63.0558359 C2.73066667,62.9984 2.65312821,62.9302974 2.51487179,62.9302974 L0.250666667,62.9302974 C0.096,62.9302974 0,63.0299897 0,63.1908103 L0,63.7852718 C0,63.9276308 0.0726153846,64.0301949 0.193230769,64.0646564 C0.317538462,64.1077333 0.440205128,64.1528615 0.560410256,64.2004513 C0.656820513,64.2394256 0.754051282,64.276759 0.850461538,64.3116308 L0.447589744,73.1945026 C0.447589744,73.4972718 0.665435897,73.5210667 0.731897436,73.5210667 L1.65374359,73.5210667 C1.77682051,73.5210667 1.85887179,73.4820923 1.89907692,73.4053744 C1.92410256,73.3553231 1.93887179,73.2864 1.94502564,73.1891692 L2.14235897,65.2970667 C2.16779487,65.3762462 2.19446154,65.4566564 2.22235897,65.5382974 C2.28594872,65.7233231 2.352,65.9083487 2.41969231,66.0933744 L4.11364103,70.7928615 C4.14523077,70.8843487 4.19364103,70.9491692 4.25641026,70.984041 C4.31179487,71.016041 4.37620513,71.0328615 4.44635897,71.0328615 L4.81887179,71.0328615 C4.87548718,71.0328615 4.93415385,71.0148103 4.99323077,70.9795282 C5.05558974,70.9421949 5.10358974,70.8802462 5.13682051,70.7940923 C5.49333333,69.8189128 5.85517949,68.8453744 6.22112821,67.8755282 C6.54810256,67.0086564 6.86482051,66.1216821 7.16594872,65.2330667 L7.26564103,73.1862974 C7.26564103,73.2868103 7.28287179,73.3618872 7.31733333,73.4144 C7.36205128,73.4853744 7.44492308,73.5210667 7.56348718,73.5210667 L8.47835897,73.5210667 C8.66092308,73.5210667 8.77005128,73.4139897 8.77005128,73.2351179 C8.77005128,73.1690667 8.76635897,73.044759 8.75938462,72.8609641 L8.72902564,71.9990154 Z" id="Fill-94" fill="#5B666F"></path>
                <path d="M12.1448615,64.6500513 L10.3553231,64.6500513 C10.2010667,64.6500513 10.1046564,64.7435897 10.1046564,64.8937436 L10.1046564,65.3885128 C10.1046564,65.4574359 10.1309128,65.5817436 10.3073231,65.6404103 L10.9858872,65.8525128 L10.9858872,73.2162051 C10.9858872,73.3035897 11.0018872,73.3704615 11.0342974,73.4205128 C11.0769641,73.4873846 11.1565538,73.5210256 11.2706051,73.5210256 L12.1854769,73.5210256 C12.3003487,73.5210256 12.3803487,73.4853333 12.4230154,73.4147692 L12.4234256,73.4139487 C12.4546051,73.3610256 12.4697846,73.2966154 12.4697846,73.2162051 L12.4697846,64.9819487 C12.4697846,64.8875897 12.444759,64.809641 12.3959385,64.7489231 C12.3413744,64.6832821 12.2568615,64.6500513 12.1448615,64.6500513" id="Fill-95" fill="#5B666F"></path>
                <path d="M19.5382974,71.4613744 L19.0369641,71.4613744 C18.9713231,71.4613744 18.8519385,71.4864 18.7940923,71.6505026 L18.5577846,72.2740923 L16.5631179,72.2740923 C16.3850667,72.2740923 16.3124513,72.2519385 16.2841436,72.2388103 C16.264041,72.2285538 16.2517333,72.1838359 16.2517333,72.1181949 L16.2517333,64.9612718 C16.2517333,64.8829128 16.2361436,64.8164513 16.2041436,64.7627077 C16.1618872,64.6925538 16.0814769,64.6568615 15.9670154,64.6568615 L15.0517333,64.6568615 C14.9376821,64.6568615 14.8585026,64.6905026 14.8166564,64.7561436 C14.7834256,64.8070154 14.7674256,64.8742974 14.7674256,64.9612718 L14.7674256,72.5382974 C14.7674256,72.8874256 14.8716308,73.1430154 15.0771692,73.2976821 C15.2749128,73.4478359 15.5707077,73.5212718 15.9801436,73.5212718 L19.5456821,73.5212718 C19.6601436,73.5212718 19.7828103,73.4519385 19.7828103,73.2570667 L19.7828103,71.7112205 C19.7828103,71.5569641 19.6888615,71.4613744 19.5382974,71.4613744" id="Fill-96" fill="#5B666F"></path>
                <path d="M25.0283077,67.4076718 C25.0283077,67.9812103 24.8523077,68.3972103 24.4908718,68.6794667 C24.1257436,68.9650051 23.5669744,69.1094154 22.8313846,69.1094154 L22.4190769,69.1094154 C22.4190769,68.5654154 22.4203077,68.0230564 22.4219487,67.4835692 L22.4219487,67.483159 C22.424,66.9408 22.4252308,66.3968 22.425641,65.8503385 C22.4699487,65.8486974 22.5126154,65.8470564 22.5532308,65.8454154 L22.8067692,65.8388513 C22.9003077,65.8363897 22.9991795,65.8355692 23.1017436,65.8355692 C23.4151795,65.8355692 23.6998974,65.8622359 23.945641,65.9139282 C24.1835897,65.9652103 24.3846154,66.0517744 24.5429744,66.1715692 C24.6992821,66.2893128 24.8198974,66.4489026 24.9015385,66.6458256 C24.985641,66.8468513 25.0283077,67.1036718 25.0283077,67.4076718 M26.5462564,67.2997744 C26.5462564,66.4136205 26.2685128,65.7371077 25.7208205,65.2886974 C25.1801026,64.8468513 24.4043077,64.6228513 23.4147692,64.6228513 C22.9355897,64.6228513 22.4761026,64.6265436 22.0371282,64.6326974 C21.6002051,64.6396718 21.1645128,64.6429538 20.7308718,64.6429538 L20.3247179,64.6429538 C20.2246154,64.6429538 20.1659487,64.6872615 20.1339487,64.7254154 C20.0941538,64.7738256 20.073641,64.8329026 20.073641,64.9005949 L20.073641,65.3953641 C20.073641,65.5114667 20.1442051,65.6029538 20.2652308,65.6456205 L20.934359,65.8893128 L20.934359,73.2160821 C20.934359,73.3034667 20.9507692,73.3703385 20.984,73.4212103 C21.0270769,73.4872615 21.1062564,73.5209026 21.2203077,73.5209026 L22.1401026,73.5209026 C22.1819487,73.5209026 22.3091282,73.5209026 22.3751795,73.4265436 C22.4088205,73.3764923 22.425641,73.3100308 22.425641,73.2230564 C22.425641,72.7168 22.424,72.2150564 22.4219487,71.7178256 C22.4203077,71.2587487 22.4190769,70.7955692 22.4190769,70.3286974 L22.8244103,70.3286974 C23.4077949,70.3286974 23.9353846,70.2696205 24.3928205,70.1522872 C24.8539487,70.0341333 25.2494359,69.8495179 25.5673846,69.6037744 C25.8882051,69.3555692 26.134359,69.0343385 26.3001026,68.6491077 C26.4633846,68.2683897 26.5462564,67.8138256 26.5462564,67.2997744" id="Fill-97" fill="#5B666F"></path>
                <path d="M29.129641,69.0523077 C29.238359,68.7109744 29.334359,68.4020513 29.4180513,68.1259487 L29.6449231,67.3809231 C29.7130256,67.1593846 29.7749744,66.9534359 29.8315897,66.7630769 C29.8877949,66.5739487 29.9419487,66.3942564 29.9940513,66.2248205 C30.0112821,66.1682051 30.0289231,66.1111795 30.0473846,66.0533333 C30.2061538,66.5706667 30.3546667,67.0826667 30.4908718,67.5807179 C30.6603077,68.1997949 30.8338462,68.8196923 31.0102564,69.4387692 L31.1907692,70.0582564 L28.8059487,70.0582564 C28.9261538,69.6886154 29.0340513,69.3534359 29.129641,69.0523077 Z M31.0414359,64.8406154 C31.0258462,64.7889231 31.0028718,64.7487179 30.9704615,64.7163077 C30.9298462,64.6761026 30.8699487,64.6568205 30.7887179,64.6568205 L28.2541538,64.6568205 C28.1762051,64.6568205 28.1138462,64.6797949 28.072,64.7232821 C28.0268718,64.7671795 28.0034872,64.8262564 28.0034872,64.8935385 L28.0034872,65.3542564 C28.0034872,65.4067692 28.0133333,65.4555897 28.0346667,65.5027692 C28.0625641,65.5614359 28.12,65.6053333 28.2151795,65.6389744 L28.7649231,65.8145641 C28.3526154,67.0379487 27.9448205,68.254359 27.5415385,69.4621538 C27.1259487,70.7072821 26.7083077,71.9573333 26.2869744,73.2147692 L26.2791795,73.2402051 C26.2717949,73.2594872 26.2681026,73.2808205 26.2681026,73.3247179 C26.2681026,73.3989744 26.3029744,73.4596923 26.3673846,73.4929231 C26.4055385,73.5117949 26.4453333,73.5212308 26.4851282,73.5212308 L27.5694359,73.5212308 C27.6293333,73.5212308 27.6843077,73.5003077 27.7302564,73.4609231 C27.7753846,73.424 27.8065641,73.3772308 27.8217436,73.3247179 L28.4477949,71.2841026 L31.5427692,71.2841026 L32.1421538,73.3226667 C32.1573333,73.3768205 32.1881026,73.4227692 32.232,73.4596923 C32.28,73.5003077 32.3366154,73.5212308 32.4018462,73.5212308 L33.4927179,73.5212308 C33.5325128,73.5212308 33.5723077,73.5113846 33.6137436,73.4912821 C33.6744615,73.4596923 33.7093333,73.4018462 33.7093333,73.3316923 C33.7093333,73.3070769 33.7031795,73.2824615 33.6908718,73.2426667 L31.0414359,64.8406154 Z" id="Fill-98" fill="#5B666F"></path>
                <path d="M41.9529846,70.0583385 L39.5681641,70.0583385 C39.687959,69.6886974 39.7958564,69.3535179 39.8918564,69.0523897 C40.0005744,68.7110564 40.0969846,68.4017231 40.1802667,68.1260308 L40.4071385,67.3810051 C40.4748308,67.1594667 40.5376,66.9531077 40.5938051,66.763159 C40.6500103,66.5740308 40.7041641,66.3943385 40.7566769,66.2249026 C40.7739077,66.1682872 40.7915487,66.1112615 40.8096,66.0534154 C40.9683692,66.5707487 41.1172923,67.083159 41.2534974,67.5808 C41.4229333,68.1998769 41.5960615,68.8193641 41.7728821,69.4388513 L41.9529846,70.0583385 Z M41.8040615,64.8394667 C41.7880615,64.7881846 41.7650872,64.7483897 41.7330872,64.7163897 C41.6920615,64.6765949 41.6329846,64.6569026 41.5513436,64.6569026 L39.0163692,64.6569026 C38.9388308,64.6569026 38.8768821,64.6798769 38.8338051,64.7233641 C38.7890872,64.7672615 38.7652923,64.8263385 38.7652923,64.8936205 L38.7652923,65.3543385 C38.7652923,65.406441 38.775959,65.4552615 38.7968821,65.5028513 C38.8247795,65.5615179 38.8826256,65.6050051 38.9769846,65.6390564 L39.5275487,65.8146462 C39.115241,67.0380308 38.7074462,68.254441 38.3037538,69.4622359 L37.0393436,73.2443897 C37.0336,73.2632615 37.0307282,73.2821333 37.0307282,73.3248 C37.0307282,73.3994667 37.0656,73.4597744 37.1291897,73.4930051 C37.1677538,73.5114667 37.2075487,73.5209026 37.2473436,73.5209026 L38.3320615,73.5209026 C38.3915487,73.5209026 38.4465231,73.5003897 38.4924718,73.4610051 C38.5384205,73.4236718 38.5691897,73.3769026 38.5843692,73.3248 L39.2100103,71.2841846 L42.3049846,71.2841846 L42.9043692,73.323159 C42.919959,73.3769026 42.9507282,73.4228513 42.9942154,73.4597744 C43.0422154,73.5003897 43.099241,73.5209026 43.1640615,73.5209026 L44.2549333,73.5209026 C44.2951385,73.5209026 44.3349333,73.5114667 44.3755487,73.4913641 C44.4366769,73.4597744 44.471959,73.4015179 44.471959,73.3317744 C44.471959,73.307159 44.4653949,73.2821333 44.4534974,73.2427487 L41.8040615,64.8394667 Z" id="Fill-99" fill="#5B666F"></path>
                <path d="M50.0763487,71.4613744 L49.5750154,71.4613744 C49.5093744,71.4613744 49.3899897,71.4864 49.3321436,71.6505026 L49.0958359,72.2740923 L47.1011692,72.2740923 C46.9235282,72.2740923 46.8500923,72.2519385 46.8221949,72.2388103 C46.8025026,72.2285538 46.7893744,72.1826051 46.7893744,72.1181949 L46.7893744,64.9612718 C46.7893744,64.8825026 46.7737846,64.816041 46.7421949,64.7622974 C46.6995282,64.6921436 46.6195282,64.6568615 46.5050667,64.6568615 L45.5901949,64.6568615 C45.4761436,64.6568615 45.3965538,64.6905026 45.3542974,64.7565538 C45.3210667,64.8074256 45.3054769,64.8742974 45.3054769,64.9612718 L45.3054769,72.5382974 C45.3054769,72.8874256 45.4096821,73.1430154 45.6148103,73.2976821 C45.8133744,73.4482462 46.108759,73.5212718 46.5181949,73.5212718 L50.0837333,73.5212718 C50.1981949,73.5212718 50.3204513,73.4519385 50.3204513,73.2570667 L50.3204513,71.7112205 C50.3204513,71.5569641 50.2269128,71.4613744 50.0763487,71.4613744" id="Fill-100" fill="#5B666F"></path>
                <path d="M56.4601846,64.7958974 L56.4285949,64.7540513 C56.4138256,64.7282051 56.3924923,64.7072821 56.3662359,64.6933333 C56.3572103,64.6867692 56.3485949,64.6822564 56.3387487,64.6785641 L56.3161846,64.6637949 L56.2891077,64.6637949 C56.2714667,64.6588718 56.2517744,64.6568205 56.2300308,64.6568205 L49.9949538,64.6568205 C49.8324923,64.6568205 49.731159,64.7577436 49.731159,64.9210256 L49.731159,66.5608205 C49.731159,66.6367179 49.7668513,66.7015385 49.8308513,66.7421538 C49.8813128,66.7745641 49.9387487,66.7909744 50.0019282,66.7909744 L50.4966974,66.7909744 C50.5680821,66.7909744 50.6242872,66.7708718 50.6669538,66.7302564 C50.6993641,66.6970256 50.7223385,66.6527179 50.7362872,66.5981538 L50.854441,66.1739487 C50.8794667,66.0845128 50.9049026,65.9942564 50.9299282,65.9031795 L52.3674667,65.9031795 L52.3674667,73.216 C52.3674667,73.3029744 52.3830564,73.3702564 52.4162872,73.4203077 C52.4585436,73.4875897 52.5377231,73.5212308 52.6517744,73.5212308 L53.5666462,73.5212308 C53.6782359,73.5212308 53.7582359,73.488 53.8054154,73.4235897 C53.8452103,73.3694359 53.8649026,73.3001026 53.8649026,73.216 L53.8583385,65.9031795 L55.2954667,65.9031795 C55.3241846,66.0065641 55.3541333,66.1091282 55.3844923,66.2112821 C55.4230564,66.3388718 55.4599795,66.4681026 55.4948513,66.5956923 C55.5096205,66.6531282 55.5330051,66.6978462 55.5666462,66.7314872 C55.6068513,66.7704615 55.6638769,66.7909744 55.7356718,66.7909744 L56.2300308,66.7909744 C56.3810051,66.7909744 56.4741333,66.7027692 56.4741333,66.5608205 L56.4741333,64.9210256 C56.4741333,64.8918974 56.4712615,64.8681026 56.4655179,64.8471795 L56.4601846,64.7958974 Z" id="Fill-101" fill="#5B666F"></path>
                <path d="M61.5691487,69.4441436 L59.169559,69.4441436 L59.3582769,68.6745026 C59.5346872,67.9372718 59.7074051,67.2008615 59.8776615,66.4632205 C60.0130462,65.8724513 60.161559,65.2644513 60.3199179,64.6502974 C60.337559,64.7175795 60.3547897,64.784041 60.3716103,64.8500923 C60.4237128,65.0511179 60.4782769,65.2644513 60.5344821,65.4896821 C60.5910974,65.7157333 60.6534564,65.9614769 60.7211487,66.2244513 L60.9476103,67.1110154 C61.0313026,67.440041 61.1273026,67.8072205 61.2360205,68.2137846 C61.3344821,68.5809641 61.4452513,68.9912205 61.5691487,69.4441436 Z M64.0905846,73.2238359 L63.9806359,73.2570667 L64.081559,73.1893744 C63.6610462,71.6944 63.2429949,70.2068103 62.8274051,68.7253744 C62.420841,67.2779897 62.0101744,65.8203487 61.5949949,64.3549128 L62.1582769,64.1403487 C62.2518154,64.1009641 62.3100718,64.0492718 62.3359179,63.9824 C62.3547897,63.9348103 62.3638154,63.8814769 62.3638154,63.8248615 L62.3638154,63.276759 C62.3638154,63.2049641 62.3433026,63.1442462 62.3030974,63.0974769 C62.2723282,63.0601436 62.2140718,63.0162462 62.1131487,63.0162462 L59.5781744,63.0162462 C59.4936615,63.0162462 59.4300718,63.0408615 59.3894564,63.0888615 C59.3599179,63.1237333 59.3385846,63.1676308 59.3246359,63.2230154 L56.6752,73.2230154 C56.6616615,73.2722462 56.657559,73.2956308 56.657559,73.3169641 C56.657559,73.3891692 56.6903795,73.4507077 56.7482256,73.4851692 C56.788841,73.5089641 56.8315077,73.5212718 56.8749949,73.5212718 L57.9658667,73.5212718 C58.0323282,73.5212718 58.0930462,73.4958359 58.1422769,73.4466051 C58.1841231,73.4043487 58.2124308,73.3538872 58.2267897,73.2964513 L58.8282256,70.8595282 L61.9154051,70.8595282 L62.5435077,73.2956308 C62.5570462,73.3534769 62.5857641,73.4043487 62.628841,73.4474256 C62.6899692,73.5081436 62.7543795,73.5212718 62.7974564,73.5212718 L63.8821744,73.5212718 C63.9256615,73.5212718 63.9683282,73.5085538 64.0081231,73.4851692 C64.0421744,73.4650667 64.0987897,73.4154256 64.0987897,73.2849641 C64.0987897,73.2706051 64.0979692,73.248041 64.0905846,73.2238359 Z" id="Fill-102" fill="#5B666F"></path>
                <path d="M18.0190769,78.3848205 L17.5788718,77.3099487 L17.1382564,78.3848205 L18.0190769,78.3848205 Z M17.2518974,76.433641 L17.9243077,76.433641 L19.3450256,79.7727179 L18.5827692,79.7727179 L18.2795897,79.0289231 L16.8777436,79.0289231 L16.5745641,79.7727179 L15.8311795,79.7727179 L17.2518974,76.433641 Z" id="Fill-103" fill="#5B666F"></path>
                <polygon id="Fill-104" fill="#5B666F" points="20.8532103 76.4573538 21.5822359 76.4573538 21.5822359 79.1096615 23.2355692 79.1096615 23.2355692 79.7726359 20.8532103 79.7726359"></polygon>
                <path d="M24.4449641,78.1244308 L24.4449641,78.1149949 C24.4449641,77.1726359 25.1551179,76.4005333 26.1737846,76.4005333 C26.7986051,76.4005333 27.172759,76.6089436 27.4808615,76.9121231 L27.0168615,77.4475077 C26.7612718,77.2148923 26.500759,77.0729436 26.1688615,77.0729436 C25.6100923,77.0729436 25.2076308,77.5369436 25.2076308,78.105559 L25.2076308,78.1149949 C25.2076308,78.6832 25.6006564,79.1570462 26.1688615,79.1570462 C26.5479385,79.1570462 26.7797333,79.0052513 27.0402462,78.7685333 L27.5046564,79.2374564 C27.1633231,79.6021744 26.7846564,79.8290462 26.1454769,79.8290462 C25.1698872,79.8290462 24.4449641,79.0762256 24.4449641,78.1244308" id="Fill-105" fill="#5B666F"></path>
                <path d="M30.9874051,78.3848205 L30.5472,77.3099487 L30.1069949,78.3848205 L30.9874051,78.3848205 Z M30.2202256,76.433641 L30.8930462,76.433641 L32.3133538,79.7727179 L31.5510974,79.7727179 L31.2479179,79.0289231 L29.8464821,79.0289231 L29.5428923,79.7727179 L28.7995077,79.7727179 L30.2202256,76.433641 Z" id="Fill-106" fill="#5B666F"></path>
                <polygon id="Fill-107" fill="#5B666F" points="33.8219487 76.4573538 34.5509744 76.4573538 34.5509744 79.1096615 36.2038974 79.1096615 36.2038974 79.7726359 33.8219487 79.7726359"></polygon>
                <path d="M39.0427077,79.1144205 C39.6396308,79.1144205 40.0420923,78.711959 40.0420923,78.1244718 L40.0420923,78.1146256 C40.0420923,77.527959 39.6396308,77.1156513 39.0427077,77.1156513 L38.4794256,77.1156513 L38.4794256,79.1144205 L39.0427077,79.1144205 Z M37.7499897,76.4571897 L39.0427077,76.4571897 C40.084759,76.4571897 40.804759,77.1726769 40.804759,78.1056 L40.804759,78.1146256 C40.804759,79.047959 40.084759,79.7724718 39.0427077,79.7724718 L37.7499897,79.7724718 L37.7499897,76.4571897 Z" id="Fill-108" fill="#5B666F"></path>
                <path d="M43.1272615,75.4533333 L43.7479795,75.7232821 L43.1034667,76.1967179 L42.5545436,76.1967179 L43.1272615,75.4533333 Z M42.4835692,79.7725128 L43.2125949,79.7725128 L43.2125949,76.4572308 L42.4835692,76.4572308 L42.4835692,79.7725128 Z" id="Fill-109" fill="#5B666F"></path>
                <path d="M46.9417436,78.3848205 L46.5015385,77.3099487 L46.0609231,78.3848205 L46.9417436,78.3848205 Z M46.1745641,76.433641 L46.8473846,76.433641 L48.2676923,79.7727179 L47.5054359,79.7727179 L47.2022564,79.0289231 L45.8004103,79.0289231 L45.4972308,79.7727179 L44.7538462,79.7727179 L46.1745641,76.433641 Z" id="Fill-110" fill="#5B666F"></path>
            </g>
        </g>
    </g>
</svg>